# xmcd
#
# Track frame offsets:
#  150
#  8464
#  20885
#  30905
#  44526
#  55100
#  66241
#  79206
#  90742
#  98849
#  112735
#  124401
#  137367
#  145223
#  156980
#  167522
#  179070
#  189101
#  203687
#  212568
#  224651
#  237829
#
# Disc length: 3290 seconds
#
# Revision: 1
# Processed by: cddbd v1.5.1PL2 Copyright (c) Steve Scherf et al.
# Submitted via: Collectorz.com_Music_Collector 6.9
#
DISCID=2d0cd816
DTITLE=Nancy Wilson - The Great American Songbook Disc 1
DYEAR=2005
DGENRE=Pop Classic Vocal
TTITLE0=All of You
TTITLE1=The Things We Did Last Summer
TTITLE2=The More I See You
TTITLE3=The Nearness of You
TTITLE4=Never Will I Marry
TTITLE5=What a Little Moonlight Can Do
TTITLE6=Little Girl Blue
TTITLE7=Tonight
TTITLE8=Sometimes I'm Happy
TTITLE9=Secret Love
TTITLE10=Sleepin' Bee
TTITLE11=Fly Me to the Moon (in Other Words)
TTITLE12=On the Street Where You Live
TTITLE13=You Don't Know What Love Is
TTITLE14=This Time the Dream's on Me
TTITLE15=Sophisticated Lady
TTITLE16=Dearly Beloved
TTITLE17=My Ship
TTITLE18=My Shining Hour
TTITLE19=I'm Gonna Laugh You Out of My Life
TTITLE20=Back in Your Own Backyard
TTITLE21=People Will Say We're in Love
EXTD=
EXTT0=
EXTT1=
EXTT2=
EXTT3=
EXTT4=
EXTT5=
EXTT6=
EXTT7=
EXTT8=
EXTT9=
EXTT10=
EXTT11=
EXTT12=
EXTT13=
EXTT14=
EXTT15=
EXTT16=
EXTT17=
EXTT18=
EXTT19=
EXTT20=
EXTT21=
PLAYORDER=
